<?xml version="1.0" encoding="UTF-8" standalone="no"?>
<!-- Created with Inkscape (http://www.inkscape.org/) -->

<svg
   xmlns:dc="http://purl.org/dc/elements/1.1/"
   xmlns:cc="http://creativecommons.org/ns#"
   xmlns:rdf="http://www.w3.org/1999/02/22-rdf-syntax-ns#"
   xmlns:svg="http://www.w3.org/2000/svg"
   xmlns="http://www.w3.org/2000/svg"
   xmlns:xlink="http://www.w3.org/1999/xlink"
   xmlns:sodipodi="http://sodipodi.sourceforge.net/DTD/sodipodi-0.dtd"
   xmlns:inkscape="http://www.inkscape.org/namespaces/inkscape"
   width="16"
   height="16"
   id="svg2"
   version="1.1"
   inkscape:version="0.48.5 r10040"
   sodipodi:docname="logo.svg"
   inkscape:export-filename="/home/jessie/projects/git/srtmerge/art/srtmerge.png"
   inkscape:export-xdpi="90"
   inkscape:export-ydpi="90">
  <defs
     id="defs4">
    <linearGradient
       id="linearGradient3851">
      <stop
         style="stop-color:#056f53;stop-opacity:1;"
         offset="0"
         id="stop3853" />
      <stop
         id="stop4426"
         offset="0.61176473"
         style="stop-color:#034f3b;stop-opacity:0.98823529;" />
      <stop
         style="stop-color:#022f23;stop-opacity:0.97945207;"
         offset="1"
         id="stop3855" />
    </linearGradient>
    <linearGradient
       id="linearGradient3839">
      <stop
         style="stop-color:#eedd42;stop-opacity:1;"
         offset="0"
         id="stop3841" />
      <stop
         style="stop-color:#15e444;stop-opacity:0;"
         offset="1"
         id="stop3843" />
    </linearGradient>
    <linearGradient
       id="linearGradient3823">
      <stop
         style="stop-color:#ed2e09;stop-opacity:1;"
         offset="0"
         id="stop3825" />
      <stop
         style="stop-color:#4a0303;stop-opacity:1;"
         offset="1"
         id="stop3827" />
    </linearGradient>
    <radialGradient
       inkscape:collect="always"
       xlink:href="#linearGradient3851-4"
       id="radialGradient3857-7"
       cx="128"
       cy="924.36218"
       fx="128"
       fy="924.36218"
       r="111.90725"
       gradientUnits="userSpaceOnUse" />
    <linearGradient
       id="linearGradient3851-4">
      <stop
         style="stop-color:#056f53;stop-opacity:1;"
         offset="0"
         id="stop3853-8" />
      <stop
         style="stop-color:#022f23;stop-opacity:0.97945207;"
         offset="1"
         id="stop3855-4" />
    </linearGradient>
    <radialGradient
       gradientTransform="matrix(0.85403021,0,0,0.88679895,-339.07508,89.508962)"
       r="111.90725"
       fy="924.36218"
       fx="128"
       cy="924.36218"
       cx="128"
       gradientUnits="userSpaceOnUse"
       id="radialGradient4225-1"
       xlink:href="#linearGradient3839-1"
       inkscape:collect="always" />
    <linearGradient
       id="linearGradient3839-1">
      <stop
         style="stop-color:#eedd42;stop-opacity:1;"
         offset="0"
         id="stop3841-3" />
      <stop
         style="stop-color:#15e444;stop-opacity:0;"
         offset="1"
         id="stop3843-1" />
    </linearGradient>
    <radialGradient
       inkscape:collect="always"
       xlink:href="#linearGradient3851-0"
       id="radialGradient3857-9"
       cx="128"
       cy="924.36218"
       fx="128"
       fy="924.36218"
       r="111.90725"
       gradientUnits="userSpaceOnUse" />
    <linearGradient
       id="linearGradient3851-0">
      <stop
         style="stop-color:#056f53;stop-opacity:1;"
         offset="0"
         id="stop3853-2" />
      <stop
         style="stop-color:#022f23;stop-opacity:0.97945207;"
         offset="1"
         id="stop3855-1" />
    </linearGradient>
    <radialGradient
       gradientTransform="translate(-340.77107,-1.7813682)"
       r="111.90725"
       fy="924.36218"
       fx="128"
       cy="924.36218"
       cx="128"
       gradientUnits="userSpaceOnUse"
       id="radialGradient4304"
       xlink:href="#linearGradient3851-0"
       inkscape:collect="always" />
    <radialGradient
       inkscape:collect="always"
       xlink:href="#linearGradient3851"
       id="radialGradient4424"
       gradientUnits="userSpaceOnUse"
       gradientTransform="matrix(1,0,0,0.98808389,-453.09375,22.696982)"
       cx="101.99722"
       cy="897.69269"
       fx="101.99722"
       fy="897.69269"
       r="111.90725" />
    <radialGradient
       inkscape:collect="always"
       xlink:href="#linearGradient3851-7"
       id="radialGradient4424-7"
       gradientUnits="userSpaceOnUse"
       gradientTransform="matrix(1,0,0,0.98808389,0,-785.66518)"
       cx="101.99722"
       cy="897.69269"
       fx="101.99722"
       fy="897.69269"
       r="111.90725" />
    <linearGradient
       id="linearGradient3851-7">
      <stop
         style="stop-color:#056f53;stop-opacity:1;"
         offset="0"
         id="stop3853-9" />
      <stop
         id="stop4426-1"
         offset="0.61176473"
         style="stop-color:#034f3b;stop-opacity:0.98823529;" />
      <stop
         style="stop-color:#022f23;stop-opacity:0.97945207;"
         offset="1"
         id="stop3855-8" />
    </linearGradient>
    <radialGradient
       r="111.90725"
       fy="897.69269"
       fx="101.99722"
       cy="897.69269"
       cx="101.99722"
       gradientTransform="matrix(0.50041888,0,0,0.49445576,-198.71845,535.14691)"
       gradientUnits="userSpaceOnUse"
       id="radialGradient4444"
       xlink:href="#linearGradient3851-7"
       inkscape:collect="always" />
    <radialGradient
       r="111.90725"
       fy="897.69269"
       fx="101.99722"
       cy="897.69269"
       cx="101.99722"
       gradientTransform="matrix(0.50041888,0,0,0.49445576,272.29059,415.32576)"
       gradientUnits="userSpaceOnUse"
       id="radialGradient4444-3"
       xlink:href="#linearGradient3851-7-9"
       inkscape:collect="always" />
    <linearGradient
       id="linearGradient3851-7-9">
      <stop
         style="stop-color:#056f53;stop-opacity:1;"
         offset="0"
         id="stop3853-9-8" />
      <stop
         id="stop4426-1-0"
         offset="0.61176473"
         style="stop-color:#034f3b;stop-opacity:0.98823529;" />
      <stop
         style="stop-color:#022f23;stop-opacity:0.97945207;"
         offset="1"
         id="stop3855-8-3" />
    </linearGradient>
    <radialGradient
       r="111.90725"
       fy="897.69269"
       fx="101.99722"
       cy="897.69269"
       cx="101.99722"
       gradientTransform="matrix(0.25020944,0,0,0.24722781,-67.124236,791.75459)"
       gradientUnits="userSpaceOnUse"
       id="radialGradient4481"
       xlink:href="#linearGradient3851-7-9"
       inkscape:collect="always" />
    <radialGradient
       r="111.90725"
       fy="897.69269"
       fx="101.99722"
       cy="897.69269"
       cx="101.99722"
       gradientTransform="matrix(0.25020944,0,0,0.24722781,278.4778,743.32001)"
       gradientUnits="userSpaceOnUse"
       id="radialGradient4481-5"
       xlink:href="#linearGradient3851-7-9-2"
       inkscape:collect="always" />
    <linearGradient
       id="linearGradient3851-7-9-2">
      <stop
         style="stop-color:#056f53;stop-opacity:1;"
         offset="0"
         id="stop3853-9-8-8" />
      <stop
         id="stop4426-1-0-2"
         offset="0.61176473"
         style="stop-color:#034f3b;stop-opacity:0.98823529;" />
      <stop
         style="stop-color:#022f23;stop-opacity:0.97945207;"
         offset="1"
         id="stop3855-8-3-7" />
    </linearGradient>
    <radialGradient
       r="111.90725"
       fy="897.69269"
       fx="101.99722"
       cy="897.69269"
       cx="101.99722"
       gradientTransform="matrix(0.12510472,0,0,0.12361379,41.710356,877.50593)"
       gradientUnits="userSpaceOnUse"
       id="radialGradient4518"
       xlink:href="#linearGradient3851-7-9-2"
       inkscape:collect="always" />
    <radialGradient
       r="111.90725"
       fy="897.69269"
       fx="101.99722"
       cy="897.69269"
       cx="101.99722"
       gradientTransform="matrix(0.12510472,0,0,0.12361379,343.37887,845.50973)"
       gradientUnits="userSpaceOnUse"
       id="radialGradient4518-3"
       xlink:href="#linearGradient3851-7-9-2-9"
       inkscape:collect="always" />
    <linearGradient
       id="linearGradient3851-7-9-2-9">
      <stop
         style="stop-color:#056f53;stop-opacity:1;"
         offset="0"
         id="stop3853-9-8-8-8" />
      <stop
         id="stop4426-1-0-2-6"
         offset="0.61176473"
         style="stop-color:#034f3b;stop-opacity:0.98823529;" />
      <stop
         style="stop-color:#022f23;stop-opacity:0.97945207;"
         offset="1"
         id="stop3855-8-3-7-4" />
    </linearGradient>
    <radialGradient
       r="111.90725"
       fy="897.69269"
       fx="101.99722"
       cy="897.69269"
       cx="101.99722"
       gradientTransform="matrix(0.06255236,0,0,0.06180678,115.21233,984.10801)"
       gradientUnits="userSpaceOnUse"
       id="radialGradient4555"
       xlink:href="#linearGradient3851-7-9-2-9"
       inkscape:collect="always" />
    <radialGradient
       r="111.90725"
       fy="897.69269"
       fx="101.99722"
       cy="897.69269"
       cx="101.99722"
       gradientTransform="matrix(0.25020944,0,0,0.24722781,278.4778,743.32001)"
       gradientUnits="userSpaceOnUse"
       id="radialGradient4481-7"
       xlink:href="#linearGradient3851-7-9-22"
       inkscape:collect="always" />
    <linearGradient
       id="linearGradient3851-7-9-22">
      <stop
         style="stop-color:#056f53;stop-opacity:1;"
         offset="0"
         id="stop3853-9-8-3" />
      <stop
         id="stop4426-1-0-9"
         offset="0.61176473"
         style="stop-color:#034f3b;stop-opacity:0.98823529;" />
      <stop
         style="stop-color:#022f23;stop-opacity:0.97945207;"
         offset="1"
         id="stop3855-8-3-8" />
    </linearGradient>
    <radialGradient
       r="111.90725"
       fy="897.69269"
       fx="101.99722"
       cy="897.69269"
       cx="101.99722"
       gradientTransform="matrix(0.16978498,0,0,0.16776173,-1.7398464,832.69043)"
       gradientUnits="userSpaceOnUse"
       id="radialGradient4592"
       xlink:href="#linearGradient3851-7-9-22"
       inkscape:collect="always" />
    <radialGradient
       r="111.90725"
       fy="897.69269"
       fx="101.99722"
       cy="897.69269"
       cx="101.99722"
       gradientTransform="matrix(0.16978498,0,0,0.16776173,281.96759,877.56589)"
       gradientUnits="userSpaceOnUse"
       id="radialGradient4592-8"
       xlink:href="#linearGradient3851-7-9-22-8"
       inkscape:collect="always" />
    <linearGradient
       id="linearGradient3851-7-9-22-8">
      <stop
         style="stop-color:#056f53;stop-opacity:1;"
         offset="0"
         id="stop3853-9-8-3-0" />
      <stop
         id="stop4426-1-0-9-9"
         offset="0.61176473"
         style="stop-color:#034f3b;stop-opacity:0.98823529;" />
      <stop
         style="stop-color:#022f23;stop-opacity:0.97945207;"
         offset="1"
         id="stop3855-8-3-8-6" />
    </linearGradient>
    <radialGradient
       r="111.90725"
       fy="897.69269"
       fx="101.99722"
       cy="897.69269"
       cx="101.99722"
       gradientTransform="matrix(0.08936053,0,0,0.08829564,0.5618524,958.71656)"
       gradientUnits="userSpaceOnUse"
       id="radialGradient4629"
       xlink:href="#linearGradient3851-7-9-22-8"
       inkscape:collect="always" />
    <radialGradient
       inkscape:collect="always"
       xlink:href="#linearGradient3851-7-9-22-8"
       id="radialGradient3050"
       gradientUnits="userSpaceOnUse"
       gradientTransform="matrix(0.07136779,0,0,0.07051727,-1.135077,979.15594)"
       cx="101.99722"
       cy="897.69269"
       fx="101.99722"
       fy="897.69269"
       r="111.90725" />
  </defs>
  <sodipodi:namedview
     id="base"
     pagecolor="#ffffff"
     bordercolor="#666666"
     borderopacity="1.0"
     inkscape:pageopacity="0.0"
     inkscape:pageshadow="2"
     inkscape:zoom="8.4843752"
     inkscape:cx="13.535244"
     inkscape:cy="22.255471"
     inkscape:document-units="px"
     inkscape:current-layer="layer1"
     showgrid="false"
     inkscape:window-width="501"
     inkscape:window-height="438"
     inkscape:window-x="101"
     inkscape:window-y="103"
     inkscape:window-maximized="0" />
  <metadata
     id="metadata7">
    <rdf:RDF>
      <cc:Work
         rdf:about="">
        <dc:format>image/svg+xml</dc:format>
        <dc:type
           rdf:resource="http://purl.org/dc/dcmitype/StillImage" />
        <dc:title></dc:title>
      </cc:Work>
    </rdf:RDF>
  </metadata>
  <g
     inkscape:label="Layer 1"
     inkscape:groupmode="layer"
     id="layer1"
     transform="translate(0,-1036.3622)">
    <path
       style="fill:url(#radialGradient4424);fill-opacity:1;stroke:none"
       d="m -425,824.45591 c -6.648,0 -12,5.352 -12,12 l 0,199.81249 c 0,6.648 5.352,12 12,12 l 199.8125,0 c 6.648,0 12,-5.352 12,-12 l 0,-199.81249 c 0,-6.648 -5.352,-12 -12,-12 l -199.8125,0 z m -0.0937,13.90625 16,0 c 2.216,0 4,1.784 4,4 l 0,8 c 0,2.216 -1.784,4 -4,4 l -16,0 c -2.216,0 -4,-1.784 -4,-4 l 0,-8 c 0,-2.216 1.784,-4 4,-4 z m 184,0 16,0 c 2.216,0 4,1.784 4,4 l 0,8 c 0,2.216 -1.784,4 -4,4 l -16,0 c -2.216,0 -4,-1.784 -4,-4 l 0,-8 c 0,-2.216 1.784,-4 4,-4 z m -100.4375,4.375 c 14.67829,9e-5 26.08146,2.20266 34.1875,6.625 8.16063,4.42249 12.21865,10.59219 12.21875,18.5 -10e-5,4.57239 0.20578,12.14848 -6.6875,16.875 -12.12666,8.92975 -29.95125,8.68313 -44.75,12 -5.57362,1.24923 -15.48835,3.56994 -14.9375,8.1875 l 4.84375,7.0625 c 9.50235,0.65965 60.4375,-1.3125 60.4375,-1.3125 l 0.28125,19.3125 c 0,0 -75.57829,1.42437 -78.96875,-0.46875 -12.63521,-7.94902 -19.11096,-21.06969 -16.9375,-30.15625 2.11439,-8.83959 8.81881,-13.46914 17.375,-16.5625 12.17339,-4.40111 34.9746,-6.0662 38.5,-7.28125 3.56947,-1.23023 11.68743,-3.29518 11.6875,-5.84375 -7e-5,-3.93514 -1.83014,-5.78883 -5.71875,-8.1875 -4.66025,-2.21005 -11.68572,-2.28118 -18.09375,-2.28125 -4.92934,7e-5 -8.68835,0.54085 -15.375,1.53125 -5.8604,1.42423 -13.07389,2.34166 -20.03125,4.71875 l -0.28125,-17.6875 c 7.12008,-1.61147 14.82545,-2.9254 21.78125,-3.75 6.95575,-0.86191 13.78676,-1.28116 20.46875,-1.28125 z m -83.5625,21.625 16,0 c 2.216,0 4,1.784 4,4 l 0,8 c 0,2.216 -1.784,4 -4,4 l -16,0 c -2.216,0 -4,-1.784 -4,-4 l 0,-8 c 0,-2.216 1.784,-4 4,-4 z m 184,0 16,0 c 2.216,0 4,1.784 4,4 l 0,8 c 0,2.216 -1.784,4 -4,4 l -16,0 c -2.216,0 -4,-1.784 -4,-4 l 0,-8 c 0,-2.216 1.784,-4 4,-4 z m -184,26 16,0 c 2.216,0 4,1.784 4,4 l 0,8 c 0,2.216 -1.784,4 -4,4 l -16,0 c -2.216,0 -4,-1.784 -4,-4 l 0,-8 c 0,-2.216 1.784,-4 4,-4 z m 184,0 16,0 c 2.216,0 4,1.784 4,4 l 0,8 c 0,2.216 -1.784,4 -4,4 l -16,0 c -2.216,0 -4,-1.784 -4,-4 l 0,-8 c 0,-2.216 1.784,-4 4,-4 z m -184,26 16,0 c 2.216,0 4,1.784 4,4 l 0,8 c 0,2.216 -1.784,4 -4,4 l -16,0 c -2.216,0 -4,-1.784 -4,-4 l 0,-8 c 0,-2.216 1.784,-4 4,-4 z m 184,0 16,0 c 2.216,0 4,1.784 4,4 l 0,8 c 0,2.216 -1.784,4 -4,4 l -16,0 c -2.216,0 -4,-1.784 -4,-4 l 0,-8 c 0,-2.216 1.784,-4 4,-4 z m -69.0625,22.34375 c 6.95719,9e-5 14.07028,0.43393 21.3125,1.25 7.24228,0.78075 15.27419,2.00549 22.6875,3.53125 l -0.28125,16.75 c -7.2439,-2.25067 -14.77322,-3.12026 -20.875,-4.46875 -6.96203,-0.93772 -10.86763,-1.43744 -16,-1.4375 -6.67194,6e-5 -13.99157,0.0637 -18.84375,2.15625 -4.04876,2.27109 -5.93742,4.02415 -5.9375,7.75 8e-5,2.41302 8.43978,4.36645 12.15625,5.53125 3.6706,1.15043 27.419,2.70797 40.09375,6.875 8.90858,2.92884 15.86103,7.31804 18.0625,15.6875 2.26297,8.60329 -4.46939,21.00499 -17.625,28.53129 -3.5301,1.7924 -82.1875,0.4687 -82.1875,0.4687 l 0.28125,-18.2812 c 0,0 53.04379,1.8745 62.9375,1.25 l 5,-6.68754 c 0.57355,-4.37197 -9.72809,-6.59846 -15.53125,-7.78125 -15.40824,-3.14046 -33.96765,-2.88893 -46.59375,-11.34375 -7.17719,-4.47514 -6.96864,-11.63954 -6.96875,-15.96875 1.1e-4,-7.48723 4.25327,-13.34397 12.75,-17.53125 8.43987,-4.18713 20.27969,-6.28116 35.5625,-6.28125 z m -114.9375,3.65625 16,0 c 2.216,0 4,1.784 4,4 l 0,8 c 0,2.216 -1.784,4 -4,4 l -16,0 c -2.216,0 -4,-1.784 -4,-4 l 0,-8 c 0,-2.216 1.784,-4 4,-4 z m 184,0 16,0 c 2.216,0 4,1.784 4,4 l 0,8 c 0,2.216 -1.784,4 -4,4 l -16,0 c -2.216,0 -4,-1.784 -4,-4 l 0,-8 c 0,-2.216 1.784,-4 4,-4 z m -184,26 16,0 c 2.216,0 4,1.784 4,4 l 0,8 c 0,2.216 -1.784,4 -4,4 l -16,0 c -2.216,0 -4,-1.784 -4,-4 l 0,-8 c 0,-2.216 1.784,-4 4,-4 z m 184,0 16,0 c 2.216,0 4,1.784 4,4 l 0,8 c 0,2.216 -1.784,4 -4,4 l -16,0 c -2.216,0 -4,-1.784 -4,-4 l 0,-8 c 0,-2.216 1.784,-4 4,-4 z m -184,26 16,0 c 2.216,0 4,1.784 4,4 l 0,8.00004 c 0,2.216 -1.784,4 -4,4 l -16,0 c -2.216,0 -4,-1.784 -4,-4 l 0,-8.00004 c 0,-2.216 1.784,-4 4,-4 z m 184,0 16,0 c 2.216,0 4,1.784 4,4 l 0,8.00004 c 0,2.216 -1.784,4 -4,4 l -16,0 c -2.216,0 -4,-1.784 -4,-4 l 0,-8.00004 c 0,-2.216 1.784,-4 4,-4 z m -184,26.00004 16,0 c 2.216,0 4,1.784 4,4 l 0,8 c 0,2.216 -1.784,4 -4,4 l -16,0 c -2.216,0 -4,-1.784 -4,-4 l 0,-8 c 0,-2.216 1.784,-4 4,-4 z m 184,0 16,0 c 2.216,0 4,1.784 4,4 l 0,8 c 0,2.216 -1.784,4 -4,4 l -16,0 c -2.216,0 -4,-1.784 -4,-4 l 0,-8 c 0,-2.216 1.784,-4 4,-4 z"
       id="rect3847"
       inkscape:connector-curvature="0" />
    <path
       inkscape:connector-curvature="0"
       style="fill:url(#radialGradient4444);fill-opacity:1;stroke:none"
       d="m -184.6598,936.36216 c -3.32679,0 -6.00503,2.67824 -6.00503,6.00503 l 0,99.99001 c 0,3.3268 2.67824,6.005 6.00503,6.005 l 99.989944,0 c 3.32679,0 6.00503,-2.6782 6.00503,-6.005 l 0,-99.99001 c 0,-3.32679 -2.67824,-6.00503 -6.00503,-6.00503 l -99.989944,0 z m -0.0469,6.95895 8.0067,0 c 1.10893,0 2.00167,0.89275 2.00167,2.00167 l 0,4.00335 c 0,1.10893 -0.89274,2.00168 -2.00167,2.00168 l -8.0067,0 c -1.10893,0 -2.00168,-0.89275 -2.00168,-2.00168 l 0,-4.00335 c 0,-1.10892 0.89275,-2.00167 2.00168,-2.00167 z m 92.077074,0 8.0067,0 c 1.10893,0 2.00168,0.89275 2.00168,2.00167 l 0,4.00335 c 0,1.10893 -0.89275,2.00168 -2.00168,2.00168 l -8.0067,0 c -1.10893,0 -2.00167,-0.89275 -2.00167,-2.00168 l 0,-4.00335 c 0,-1.10892 0.89274,-2.00167 2.00167,-2.00167 z m -50.260824,2.18933 c 7.34529,5e-5 13.05165,1.10225 17.10807,3.31528 4.08373,2.21309 6.11444,5.30053 6.11449,9.25774 -5e-5,2.28811 0.10298,6.07933 -3.34655,8.44457 -6.06841,4.46862 -14.98817,4.3452 -22.39374,6.00503 -2.78915,0.62514 -7.75067,1.78646 -7.47501,4.09718 l 2.4239,3.5342 c 4.75516,0.33011 30.24407,-0.6568 30.24407,-0.6568 l 0.14074,9.66434 c 0,0 -37.8208,0.71278 -39.51745,-0.23457 -6.3229,-3.97784 -9.56349,-10.54367 -8.47585,-15.09075 1.05809,-4.4235 4.4131,-6.74021 8.69478,-8.28819 6.0918,-2.2024 17.50195,-3.03564 19.26613,-3.64367 1.78623,-0.61563 5.84861,-1.64897 5.84865,-2.92433 -4e-5,-1.96921 -0.91584,-2.89684 -2.86178,-4.09718 -2.33207,-1.10595 -5.84775,-1.14154 -9.05445,-1.14158 -2.46673,4e-5 -4.34781,0.27066 -7.69394,0.76627 -2.93266,0.71271 -6.54243,1.17181 -10.02402,2.36135 l -0.14074,-8.85116 c 3.56302,-0.80641 7.41893,-1.46392 10.89975,-1.87657 3.48079,-0.43131 6.89916,-0.64111 10.24295,-0.64116 z m -41.81625,10.82156 8.0067,0 c 1.10893,0 2.00167,0.89275 2.00167,2.00167 l 0,4.00335 c 0,1.10893 -0.89274,2.00168 -2.00167,2.00168 l -8.0067,0 c -1.10893,0 -2.00168,-0.89275 -2.00168,-2.00168 l 0,-4.00335 c 0,-1.10892 0.89275,-2.00167 2.00168,-2.00167 z m 92.077074,0 8.0067,0 c 1.10893,0 2.00168,0.89275 2.00168,2.00167 l 0,4.00335 c 0,1.10893 -0.89275,2.00168 -2.00168,2.00168 l -8.0067,0 c -1.10893,0 -2.00167,-0.89275 -2.00167,-2.00168 l 0,-4.00335 c 0,-1.10892 0.89274,-2.00167 2.00167,-2.00167 z m -92.077074,13.01089 8.0067,0 c 1.10893,0 2.00167,0.89274 2.00167,2.00167 l 0,4.00335 c 0,1.10893 -0.89274,2.00168 -2.00167,2.00168 l -8.0067,0 c -1.10893,0 -2.00168,-0.89275 -2.00168,-2.00168 l 0,-4.00335 c 0,-1.10893 0.89275,-2.00167 2.00168,-2.00167 z m 92.077074,0 8.0067,0 c 1.10893,0 2.00168,0.89274 2.00168,2.00167 l 0,4.00335 c 0,1.10893 -0.89275,2.00168 -2.00168,2.00168 l -8.0067,0 c -1.10893,0 -2.00167,-0.89275 -2.00167,-2.00168 l 0,-4.00335 c 0,-1.10893 0.89274,-2.00167 2.00167,-2.00167 z m -92.077074,13.01089 8.0067,0 c 1.10893,0 2.00167,0.89274 2.00167,2.00167 l 0,4.00335 c 0,1.10893 -0.89274,2.00168 -2.00167,2.00168 l -8.0067,0 c -1.10893,0 -2.00168,-0.89275 -2.00168,-2.00168 l 0,-4.00335 c 0,-1.10893 0.89275,-2.00167 2.00168,-2.00167 z m 92.077074,0 8.0067,0 c 1.10893,0 2.00168,0.89274 2.00168,2.00167 l 0,4.00335 c 0,1.10893 -0.89275,2.00168 -2.00168,2.00168 l -8.0067,0 c -1.10893,0 -2.00167,-0.89275 -2.00167,-2.00168 l 0,-4.00335 c 0,-1.10893 0.89274,-2.00167 2.00167,-2.00167 z m -34.560184,11.18123 c 3.48151,4e-5 7.04104,0.21715 10.66518,0.62552 3.62417,0.3907 7.64349,1.00359 11.35325,1.76711 l -0.14074,8.38206 c -3.62498,-1.1263 -7.3928,-1.5615 -10.44624,-2.2363 -3.48394,-0.4692 -5.43837,-0.7193 -8.00671,-0.7193 -3.33876,0 -7.00164,0.032 -9.42976,1.079 -2.02608,1.1365 -2.9712,2.0137 -2.97124,3.8783 4e-5,1.2075 4.22342,2.185 6.08322,2.7679 1.83683,0.5757 13.72098,1.3551 20.06366,3.4404 4.45803,1.4656 7.93716,3.6621 9.03882,7.8503 1.132434,4.3053 -2.23657,10.5113 -8.81988,14.2776 -1.76653,0.8969 -41.12818,0.2346 -41.12818,0.2346 l 0.14074,-9.1483 c 0,0 26.54412,0.938 31.49512,0.6255 l 2.50209,-3.3466 c 0.28702,-2.1878 -4.86812,-3.3019 -7.77213,-3.8938 -7.71057,-1.5716 -16.99805,-1.4457 -23.31639,-5.6767 -3.5916,-2.2394 -3.48724,-5.8246 -3.4873,-7.991 6e-5,-3.7468 2.12842,-6.67764 6.38035,-8.77304 4.22347,-2.09531 10.14834,-3.14321 17.79614,-3.14325 z m -57.51689,1.82966 8.0067,0 c 1.10893,0 2.00167,0.89274 2.00167,2.00167 l 0,4.00336 c 0,1.1089 -0.89274,2.0017 -2.00167,2.0017 l -8.0067,0 c -1.10893,0 -2.00168,-0.8928 -2.00168,-2.0017 l 0,-4.00336 c 0,-1.10893 0.89275,-2.00167 2.00168,-2.00167 z m 92.077074,0 8.0067,0 c 1.10893,0 2.00168,0.89274 2.00168,2.00167 l 0,4.00336 c 0,1.1089 -0.89275,2.0017 -2.00168,2.0017 l -8.0067,0 c -1.10893,0 -2.00167,-0.8928 -2.00167,-2.0017 l 0,-4.00336 c 0,-1.10893 0.89274,-2.00167 2.00167,-2.00167 z m -92.077074,13.01093 8.0067,0 c 1.10893,0 2.00167,0.8927 2.00167,2.0017 l 0,4.0033 c 0,1.1089 -0.89274,2.0017 -2.00167,2.0017 l -8.0067,0 c -1.10893,0 -2.00168,-0.8928 -2.00168,-2.0017 l 0,-4.0033 c 0,-1.109 0.89275,-2.0017 2.00168,-2.0017 z m 92.077074,0 8.0067,0 c 1.10893,0 2.00168,0.8927 2.00168,2.0017 l 0,4.0033 c 0,1.1089 -0.89275,2.0017 -2.00168,2.0017 l -8.0067,0 c -1.10893,0 -2.00167,-0.8928 -2.00167,-2.0017 l 0,-4.0033 c 0,-1.109 0.89274,-2.0017 2.00167,-2.0017 z m -92.077074,13.0109 8.0067,0 c 1.10893,0 2.00167,0.8927 2.00167,2.0017 l 0,4.0033 c 0,1.1089 -0.89274,2.0017 -2.00167,2.0017 l -8.0067,0 c -1.10893,0 -2.00168,-0.8928 -2.00168,-2.0017 l 0,-4.0033 c 0,-1.109 0.89275,-2.0017 2.00168,-2.0017 z m 92.077074,0 8.0067,0 c 1.10893,0 2.00168,0.8927 2.00168,2.0017 l 0,4.0033 c 0,1.1089 -0.89275,2.0017 -2.00168,2.0017 l -8.0067,0 c -1.10893,0 -2.00167,-0.8928 -2.00167,-2.0017 l 0,-4.0033 c 0,-1.109 0.89274,-2.0017 2.00167,-2.0017 z m -92.077074,13.0109 8.0067,0 c 1.10893,0 2.00167,0.8927 2.00167,2.0016 l 0,4.0034 c 0,1.1089 -0.89274,2.0017 -2.00167,2.0017 l -8.0067,0 c -1.10893,0 -2.00168,-0.8928 -2.00168,-2.0017 l 0,-4.0034 c 0,-1.1089 0.89275,-2.0016 2.00168,-2.0016 z m 92.077074,0 8.0067,0 c 1.10893,0 2.00168,0.8927 2.00168,2.0016 l 0,4.0034 c 0,1.1089 -0.89275,2.0017 -2.00168,2.0017 l -8.0067,0 c -1.10893,0 -2.00167,-0.8928 -2.00167,-2.0017 l 0,-4.0034 c 0,-1.1089 0.89274,-2.0016 2.00167,-2.0016 z"
       id="rect3847-1" />
    <path
       inkscape:connector-curvature="0"
       style="fill:url(#radialGradient4481);fill-opacity:1;stroke:none"
       d="m -60.094906,992.36216 c -1.6634,0 -3.00252,1.33912 -3.00252,3.00251 l 0,49.99503 c 0,1.6634 1.33912,3.0025 3.00252,3.0025 l 49.99496,0 c 1.6634002,0 3.0025202,-1.3391 3.0025202,-3.0025 l 0,-49.99503 c 0,-1.66339 -1.33912,-3.00251 -3.0025202,-3.00251 l -49.99496,0 z m -0.0235,3.47947 4.00335,0 c 0.55446,0 1.00083,0.44638 1.00083,1.00084 l 0,2.00169 c 0,0.5544 -0.44637,1.0008 -1.00083,1.0008 l -4.00335,0 c -0.55447,0 -1.00085,-0.4464 -1.00085,-1.0008 l 0,-2.00169 c 0,-0.55446 0.44638,-1.00084 1.00085,-1.00084 z m 46.03853,0 4.00335,0 c 0.5544702,0 1.0008402,0.44638 1.0008402,1.00084 l 0,2.00169 c 0,0.5544 -0.44637,1.0008 -1.0008402,1.0008 l -4.00335,0 c -0.55446,0 -1.00083,-0.4464 -1.00083,-1.0008 l 0,-2.00169 c 0,-0.55446 0.44637,-1.00084 1.00083,-1.00084 z m -25.13041,1.09467 c 3.67265,2e-5 6.52582,0.55112 8.55404,1.65766 2.04186,1.1065 3.05722,2.65024 3.05724,4.62884 -2e-5,1.1441 0.0515,3.0397 -1.67327,4.2223 -3.03421,2.2343 -7.49409,2.1726 -11.19687,3.0025 -1.39458,0.3126 -3.87534,0.8933 -3.73751,2.0486 l 1.21195,1.7671 c 2.37758,0.1651 15.12204,-0.3284 15.12204,-0.3284 l 0.0704,4.8322 c 0,0 -18.9104,0.3564 -19.75873,-0.1173 -3.16145,-1.9889 -4.78174,-5.2718 -4.23792,-7.5454 0.52904,-2.2117 2.20655,-3.3701 4.34739,-4.144 3.0459,-1.1012 8.75097,-1.5179 9.63306,-1.8219 0.89312,-0.3078 2.92431,-0.8245 2.92433,-1.4621 -2e-5,-0.9847 -0.45792,-1.4485 -1.43089,-2.0486 -1.16604,-0.553 -2.92388,-0.5708 -4.52723,-0.5708 -1.23336,0 -2.17391,0.1353 -3.84697,0.3831 -1.46633,0.3564 -3.27121,0.5859 -5.01201,1.1807 l -0.0704,-4.42564 c 1.78151,-0.4032 3.70947,-0.73196 5.44988,-0.93828 1.74039,-0.21566 3.44958,-0.32056 5.12147,-0.32058 z m -20.90812,5.4108 4.00335,0 c 0.55446,0 1.00083,0.4464 1.00083,1.0009 l 0,2.0016 c 0,0.5545 -0.44637,1.0009 -1.00083,1.0009 l -4.00335,0 c -0.55447,0 -1.00085,-0.4464 -1.00085,-1.0009 l 0,-2.0016 c 0,-0.5545 0.44638,-1.0009 1.00085,-1.0009 z m 46.03853,0 4.00335,0 c 0.5544702,0 1.0008402,0.4464 1.0008402,1.0009 l 0,2.0016 c 0,0.5545 -0.44637,1.0009 -1.0008402,1.0009 l -4.00335,0 c -0.55446,0 -1.00083,-0.4464 -1.00083,-1.0009 l 0,-2.0016 c 0,-0.5545 0.44637,-1.0009 1.00083,-1.0009 z m -46.03853,6.5055 4.00335,0 c 0.55446,0 1.00083,0.4463 1.00083,1.0008 l 0,2.0017 c 0,0.5544 -0.44637,1.0008 -1.00083,1.0008 l -4.00335,0 c -0.55447,0 -1.00085,-0.4464 -1.00085,-1.0008 l 0,-2.0017 c 0,-0.5545 0.44638,-1.0008 1.00085,-1.0008 z m 46.03853,0 4.00335,0 c 0.5544702,0 1.0008402,0.4463 1.0008402,1.0008 l 0,2.0017 c 0,0.5544 -0.44637,1.0008 -1.0008402,1.0008 l -4.00335,0 c -0.55446,0 -1.00083,-0.4464 -1.00083,-1.0008 l 0,-2.0017 c 0,-0.5545 0.44637,-1.0008 1.00083,-1.0008 z m -46.03853,6.5054 4.00335,0 c 0.55446,0 1.00083,0.4464 1.00083,1.0008 l 0,2.0017 c 0,0.5545 -0.44637,1.0009 -1.00083,1.0009 l -4.00335,0 c -0.55447,0 -1.00085,-0.4464 -1.00085,-1.0009 l 0,-2.0017 c 0,-0.5544 0.44638,-1.0008 1.00085,-1.0008 z m 46.03853,0 4.00335,0 c 0.5544702,0 1.0008402,0.4464 1.0008402,1.0008 l 0,2.0017 c 0,0.5545 -0.44637,1.0009 -1.0008402,1.0009 l -4.00335,0 c -0.55446,0 -1.00083,-0.4464 -1.00083,-1.0009 l 0,-2.0017 c 0,-0.5544 0.44637,-1.0008 1.00083,-1.0008 z m -17.28009,5.5906 c 1.74076,10e-5 3.52052,0.1086 5.33259,0.3128 1.81209,0.1953 3.82174,0.5018 5.67663,0.8835 l -0.0704,4.1911 c -1.81249,-0.5632 -3.6964,-0.7808 -5.22312,-1.1182 -1.74197,-0.2346 -2.71919,-0.3596 -4.00336,-0.3596 -1.66938,0 -3.50082,0.016 -4.71488,0.5395 -1.01304,0.5682 -1.4856,1.0068 -1.48562,1.9391 2e-5,0.6038 2.11171,1.0925 3.04161,1.384 0.91842,0.2878 6.86049,0.6775 10.03183,1.7202 2.22901,0.7328 3.96858,1.831 4.51941,3.9251 0.56622,2.1527 -1.11828,5.2557 -4.40994,7.1388 -0.88326,0.4485 -20.56409,0.1173 -20.56409,0.1173 l 0.0704,-4.5741 c 0,0 13.27206,0.469 15.74756,0.3127 l 1.25105,-1.6733 c 0.14351,-1.0939 -2.43407,-1.6509 -3.88607,-1.9469 -3.85528,-0.7858 -8.49902,-0.7228 -11.65819,-2.8383 -1.79581,-1.1197 -1.74363,-2.9123 -1.74366,-3.9955 3e-5,-1.8734 1.06422,-3.3388 3.19018,-4.3865 2.11174,-1.0477 5.07417,-1.5716 8.89807,-1.5717 z m -28.75844,0.9149 4.00335,0 c 0.55446,0 1.00083,0.4463 1.00083,1.0008 l 0,2.0017 c 0,0.5544 -0.44637,1.0008 -1.00083,1.0008 l -4.00335,0 c -0.55447,0 -1.00085,-0.4464 -1.00085,-1.0008 l 0,-2.0017 c 0,-0.5545 0.44638,-1.0008 1.00085,-1.0008 z m 46.03853,0 4.00335,0 c 0.5544702,0 1.0008402,0.4463 1.0008402,1.0008 l 0,2.0017 c 0,0.5544 -0.44637,1.0008 -1.0008402,1.0008 l -4.00335,0 c -0.55446,0 -1.00083,-0.4464 -1.00083,-1.0008 l 0,-2.0017 c 0,-0.5545 0.44637,-1.0008 1.00083,-1.0008 z m -46.03853,6.5054 4.00335,0 c 0.55446,0 1.00083,0.4464 1.00083,1.0009 l 0,2.0016 c 0,0.5545 -0.44637,1.0009 -1.00083,1.0009 l -4.00335,0 c -0.55447,0 -1.00085,-0.4464 -1.00085,-1.0009 l 0,-2.0016 c 0,-0.5545 0.44638,-1.0009 1.00085,-1.0009 z m 46.03853,0 4.00335,0 c 0.5544702,0 1.0008402,0.4464 1.0008402,1.0009 l 0,2.0016 c 0,0.5545 -0.44637,1.0009 -1.0008402,1.0009 l -4.00335,0 c -0.55446,0 -1.00083,-0.4464 -1.00083,-1.0009 l 0,-2.0016 c 0,-0.5545 0.44637,-1.0009 1.00083,-1.0009 z m -46.03853,6.5055 4.00335,0 c 0.55446,0 1.00083,0.4463 1.00083,1.0008 l 0,2.0017 c 0,0.5544 -0.44637,1.0008 -1.00083,1.0008 l -4.00335,0 c -0.55447,0 -1.00085,-0.4464 -1.00085,-1.0008 l 0,-2.0017 c 0,-0.5545 0.44638,-1.0008 1.00085,-1.0008 z m 46.03853,0 4.00335,0 c 0.5544702,0 1.0008402,0.4463 1.0008402,1.0008 l 0,2.0017 c 0,0.5544 -0.44637,1.0008 -1.0008402,1.0008 l -4.00335,0 c -0.55446,0 -1.00083,-0.4464 -1.00083,-1.0008 l 0,-2.0017 c 0,-0.5545 0.44637,-1.0008 1.00083,-1.0008 z m -46.03853,6.5054 4.00335,0 c 0.55446,0 1.00083,0.4464 1.00083,1.0008 l 0,2.0017 c 0,0.5545 -0.44637,1.0009 -1.00083,1.0009 l -4.00335,0 c -0.55447,0 -1.00085,-0.4464 -1.00085,-1.0009 l 0,-2.0017 c 0,-0.5544 0.44638,-1.0008 1.00085,-1.0008 z m 46.03853,0 4.00335,0 c 0.5544702,0 1.0008402,0.4464 1.0008402,1.0008 l 0,2.0017 c 0,0.5545 -0.44637,1.0009 -1.0008402,1.0009 l -4.00335,0 c -0.55446,0 -1.00083,-0.4464 -1.00083,-1.0009 l 0,-2.0017 c 0,-0.5544 0.44637,-1.0008 1.00083,-1.0008 z"
       id="rect3847-1-0"
       inkscape:export-filename="/home/jessie/projects/git/srtmerge/data/icon.png"
       inkscape:export-xdpi="102.85711"
       inkscape:export-ydpi="102.85711" />
    <path
       inkscape:connector-curvature="0"
       style="fill:url(#radialGradient4518);fill-opacity:1;stroke:none"
       d="m 45.225016,977.80971 c -0.8317,0 -1.50126,0.6695 -1.50126,1.5012 l 0,24.99749 c 0,0.8317 0.66956,1.5013 1.50126,1.5013 l 24.99748,0 c 0.8317,0 1.50126,-0.6696 1.50126,-1.5013 l 0,-24.99749 c 0,-0.8317 -0.66956,-1.5012 -1.50126,-1.5012 l -24.99748,0 z m -0.0118,1.7397 2.00168,0 c 0.27723,0 0.50041,0.2232 0.50041,0.5004 l 0,1.0009 c 0,0.2772 -0.22318,0.5004 -0.50041,0.5004 l -2.00168,0 c -0.27723,0 -0.50043,-0.2232 -0.50043,-0.5004 l 0,-1.0009 c 0,-0.2772 0.22319,-0.5004 0.50043,-0.5004 z m 23.01926,0 2.00168,0 c 0.27723,0 0.50042,0.2232 0.50042,0.5004 l 0,1.0009 c 0,0.2772 -0.22319,0.5004 -0.50042,0.5004 l -2.00168,0 c -0.27723,0 -0.50041,-0.2232 -0.50041,-0.5004 l 0,-1.0009 c 0,-0.2772 0.22318,-0.5004 0.50041,-0.5004 z m -12.5652,0.5474 c 1.83632,0 3.26291,0.2755 4.27702,0.8288 1.02093,0.5532 1.52861,1.3251 1.52862,2.3144 -10e-6,0.572 0.0257,1.5198 -0.83663,2.1111 -1.51711,1.1172 -3.74705,1.0863 -5.59844,1.5013 -0.69729,0.1563 -1.93767,0.4466 -1.86876,1.0243 l 0.60598,0.8835 c 1.18879,0.083 7.56102,-0.1642 7.56102,-0.1642 l 0.0352,2.4161 c 0,0 -9.4552,0.1782 -9.87937,-0.059 -1.58072,-0.9944 -2.39087,-2.6359 -2.11896,-3.7727 0.26453,-1.1058 1.10328,-1.685 2.1737,-2.072 1.52295,-0.5506 4.37549,-0.7589 4.81653,-0.9109 0.44656,-0.1539 1.46216,-0.4123 1.46217,-0.7311 -10e-6,-0.4923 -0.22897,-0.7242 -0.71545,-1.0243 -0.58302,-0.2765 -1.46194,-0.2854 -2.26361,-0.2854 -0.61668,0 -1.08696,0.068 -1.92349,0.1916 -0.73316,0.1782 -1.6356,0.2929 -2.506,0.5903 l -0.0352,-2.2128 c 0.89075,-0.2016 1.85473,-0.3659 2.72494,-0.4691 0.87019,-0.1078 1.72479,-0.1603 2.56073,-0.1603 z m -10.45406,2.7053 2.00168,0 c 0.27723,0 0.50041,0.2232 0.50041,0.5005 l 0,1.0008 c 0,0.2772 -0.22318,0.5004 -0.50041,0.5004 l -2.00168,0 c -0.27723,0 -0.50043,-0.2232 -0.50043,-0.5004 l 0,-1.0008 c 0,-0.2773 0.22319,-0.5005 0.50043,-0.5005 z m 23.01926,0 2.00168,0 c 0.27723,0 0.50042,0.2232 0.50042,0.5005 l 0,1.0008 c 0,0.2772 -0.22319,0.5004 -0.50042,0.5004 l -2.00168,0 c -0.27723,0 -0.50041,-0.2232 -0.50041,-0.5004 l 0,-1.0008 c 0,-0.2773 0.22318,-0.5005 0.50041,-0.5005 z m -23.01926,3.2528 2.00168,0 c 0.27723,0 0.50041,0.2231 0.50041,0.5004 l 0,1.0008 c 0,0.2772 -0.22318,0.5004 -0.50041,0.5004 l -2.00168,0 c -0.27723,0 -0.50043,-0.2232 -0.50043,-0.5004 l 0,-1.0008 c 0,-0.2773 0.22319,-0.5004 0.50043,-0.5004 z m 23.01926,0 2.00168,0 c 0.27723,0 0.50042,0.2231 0.50042,0.5004 l 0,1.0008 c 0,0.2772 -0.22319,0.5004 -0.50042,0.5004 l -2.00168,0 c -0.27723,0 -0.50041,-0.2232 -0.50041,-0.5004 l 0,-1.0008 c 0,-0.2773 0.22318,-0.5004 0.50041,-0.5004 z m -23.01926,3.2527 2.00168,0 c 0.27723,0 0.50041,0.2232 0.50041,0.5004 l 0,1.0008 c 0,0.2773 -0.22318,0.5005 -0.50041,0.5005 l -2.00168,0 c -0.27723,0 -0.50043,-0.2232 -0.50043,-0.5005 l 0,-1.0008 c 0,-0.2772 0.22319,-0.5004 0.50043,-0.5004 z m 23.01926,0 2.00168,0 c 0.27723,0 0.50042,0.2232 0.50042,0.5004 l 0,1.0008 c 0,0.2773 -0.22319,0.5005 -0.50042,0.5005 l -2.00168,0 c -0.27723,0 -0.50041,-0.2232 -0.50041,-0.5005 l 0,-1.0008 c 0,-0.2772 0.22318,-0.5004 0.50041,-0.5004 z m -8.64004,2.7953 c 0.87038,0 1.76026,0.054 2.66629,0.1564 0.90605,0.098 1.91088,0.2509 2.83832,0.4417 l -0.0352,2.0956 c -0.90625,-0.2816 -1.8482,-0.3904 -2.61156,-0.5591 -0.87099,-0.1173 -1.3596,-0.1798 -2.00168,-0.1798 -0.83469,0 -1.75041,0.01 -2.35744,0.2697 -0.50652,0.2841 -0.7428,0.5034 -0.74281,0.9696 10e-6,0.3019 1.05585,0.5462 1.52081,0.692 0.45921,0.1439 3.43024,0.3387 5.01591,0.8601 1.1145,0.3664 1.98429,0.9155 2.25971,1.9625 0.2831,1.0764 -0.55915,2.62789 -2.20497,3.56939 -0.44164,0.2243 -10.28205,0.059 -10.28205,0.059 l 0.0352,-2.287 c 0,0 6.63603,0.2345 7.87378,0.1563 l 0.62553,-0.83659 c 0.0718,-0.547 -1.21704,-0.8255 -1.94304,-0.9735 -1.92764,-0.3929 -4.24951,-0.3614 -5.82909,-1.4191 -0.89791,-0.5599 -0.87182,-1.4562 -0.87183,-1.9978 1e-5,-0.9367 0.53211,-1.6694 1.59508,-2.1932 1.05588,-0.5239 2.53709,-0.7858 4.44904,-0.7859 z m -14.37922,0.4574 2.00168,0 c 0.27723,0 0.50041,0.2232 0.50041,0.5004 l 0,1.0009 c 0,0.2772 -0.22318,0.5004 -0.50041,0.5004 l -2.00168,0 c -0.27723,0 -0.50043,-0.2232 -0.50043,-0.5004 l 0,-1.0009 c 0,-0.2772 0.22319,-0.5004 0.50043,-0.5004 z m 23.01926,0 2.00168,0 c 0.27723,0 0.50042,0.2232 0.50042,0.5004 l 0,1.0009 c 0,0.2772 -0.22319,0.5004 -0.50042,0.5004 l -2.00168,0 c -0.27723,0 -0.50041,-0.2232 -0.50041,-0.5004 l 0,-1.0009 c 0,-0.2772 0.22318,-0.5004 0.50041,-0.5004 z m -23.01926,3.2527 2.00168,0 c 0.27723,0 0.50041,0.2232 0.50041,0.5005 l 0,1.0008 c 0,0.2772 -0.22318,0.5004 -0.50041,0.5004 l -2.00168,0 c -0.27723,0 -0.50043,-0.2232 -0.50043,-0.5004 l 0,-1.0008 c 0,-0.2773 0.22319,-0.5005 0.50043,-0.5005 z m 23.01926,0 2.00168,0 c 0.27723,0 0.50042,0.2232 0.50042,0.5005 l 0,1.0008 c 0,0.2772 -0.22319,0.5004 -0.50042,0.5004 l -2.00168,0 c -0.27723,0 -0.50041,-0.2232 -0.50041,-0.5004 l 0,-1.0008 c 0,-0.2773 0.22318,-0.5005 0.50041,-0.5005 z m -23.01926,3.2528 2.00168,0 c 0.27723,0 0.50041,0.2231 0.50041,0.5004 l 0,1.00079 c 0,0.2772 -0.22318,0.5004 -0.50041,0.5004 l -2.00168,0 c -0.27723,0 -0.50043,-0.2232 -0.50043,-0.5004 l 0,-1.00079 c 0,-0.2773 0.22319,-0.5004 0.50043,-0.5004 z m 23.01926,0 2.00168,0 c 0.27723,0 0.50042,0.2231 0.50042,0.5004 l 0,1.00079 c 0,0.2772 -0.22319,0.5004 -0.50042,0.5004 l -2.00168,0 c -0.27723,0 -0.50041,-0.2232 -0.50041,-0.5004 l 0,-1.00079 c 0,-0.2773 0.22318,-0.5004 0.50041,-0.5004 z m -23.01926,3.25269 2.00168,0 c 0.27723,0 0.50041,0.2232 0.50041,0.5004 l 0,1.0008 c 0,0.2773 -0.22318,0.5005 -0.50041,0.5005 l -2.00168,0 c -0.27723,0 -0.50043,-0.2232 -0.50043,-0.5005 l 0,-1.0008 c 0,-0.2772 0.22319,-0.5004 0.50043,-0.5004 z m 23.01926,0 2.00168,0 c 0.27723,0 0.50042,0.2232 0.50042,0.5004 l 0,1.0008 c 0,0.2773 -0.22319,0.5005 -0.50042,0.5005 l -2.00168,0 c -0.27723,0 -0.50041,-0.2232 -0.50041,-0.5005 l 0,-1.0008 c 0,-0.2772 0.22318,-0.5004 0.50041,-0.5004 z"
       id="rect3847-1-0-2" />
    <path
       inkscape:connector-curvature="0"
       style="fill:url(#radialGradient4555);fill-opacity:1;stroke:none"
       d="m 116.96966,1034.2598 c -0.41585,0 -0.75063,0.3348 -0.75063,0.7506 l 0,12.4988 c 0,0.4158 0.33478,0.7506 0.75063,0.7506 l 12.49874,0 c 0.41585,0 0.75063,-0.3348 0.75063,-0.7506 l 0,-12.4988 c 0,-0.4158 -0.33478,-0.7506 -0.75063,-0.7506 l -12.49874,0 z m -0.006,0.8699 1.00084,0 c 0.13861,0 0.2502,0.1116 0.2502,0.2502 l 0,0.5004 c 0,0.1386 -0.11159,0.2502 -0.2502,0.2502 l -1.00084,0 c -0.13861,0 -0.25022,-0.1116 -0.25022,-0.2502 l 0,-0.5004 c 0,-0.1386 0.1116,-0.2502 0.25022,-0.2502 z m 11.50963,0 1.00084,0 c 0.13861,0 0.25021,0.1116 0.25021,0.2502 l 0,0.5004 c 0,0.1386 -0.1116,0.2502 -0.25021,0.2502 l -1.00084,0 c -0.13862,0 -0.25021,-0.1116 -0.25021,-0.2502 l 0,-0.5004 c 0,-0.1386 0.11159,-0.2502 0.25021,-0.2502 z m -6.2826,0.2736 c 0.91816,0 1.63145,0.1378 2.13851,0.4144 0.51046,0.2767 0.7643,0.6626 0.76431,1.1572 -10e-6,0.2861 0.0128,0.76 -0.41832,1.0556 -0.75855,0.5586 -1.87352,0.5432 -2.79922,0.7506 -0.34864,0.078 -0.96883,0.2234 -0.93438,0.5122 l 0.30299,0.4418 c 0.5944,0.041 3.78051,-0.082 3.78051,-0.082 l 0.0176,1.208 c 0,0 -4.7276,0.089 -4.93968,-0.029 -0.79036,-0.4972 -1.19544,-1.3179 -1.05948,-1.8863 0.13226,-0.553 0.55164,-0.8426 1.08685,-1.036 0.76147,-0.2753 2.18774,-0.3795 2.40826,-0.4555 0.22328,-0.077 0.73108,-0.2061 0.73109,-0.3655 -10e-6,-0.2462 -0.11449,-0.3622 -0.35773,-0.5122 -0.29151,-0.1382 -0.73097,-0.1427 -1.1318,-0.1427 -0.30834,0 -0.54348,0.034 -0.96175,0.096 -0.36658,0.089 -0.8178,0.1465 -1.253,0.2952 l -0.0176,-1.1064 c 0.44538,-0.1008 0.92737,-0.183 1.36247,-0.2346 0.4351,-0.054 0.8624,-0.08 1.28037,-0.08 z m -5.22703,1.3527 1.00084,0 c 0.13861,0 0.2502,0.1116 0.2502,0.2502 l 0,0.5004 c 0,0.1387 -0.11159,0.2503 -0.2502,0.2503 l -1.00084,0 c -0.13862,0 -0.25022,-0.1116 -0.25022,-0.2503 l 0,-0.5004 c 0,-0.1386 0.1116,-0.2502 0.25022,-0.2502 z m 11.50963,0 1.00084,0 c 0.13861,0 0.25021,0.1116 0.25021,0.2502 l 0,0.5004 c 0,0.1387 -0.1116,0.2503 -0.25021,0.2503 l -1.00084,0 c -0.13862,0 -0.25021,-0.1116 -0.25021,-0.2503 l 0,-0.5004 c 0,-0.1386 0.11159,-0.2502 0.25021,-0.2502 z m -11.50963,1.6264 1.00084,0 c 0.13861,0 0.2502,0.1116 0.2502,0.2502 l 0,0.5004 c 0,0.1386 -0.11159,0.2502 -0.2502,0.2502 l -1.00084,0 c -0.13862,0 -0.25022,-0.1116 -0.25022,-0.2502 l 0,-0.5004 c 0,-0.1386 0.1116,-0.2502 0.25022,-0.2502 z m 11.50963,0 1.00084,0 c 0.13861,0 0.25021,0.1116 0.25021,0.2502 l 0,0.5004 c 0,0.1386 -0.1116,0.2502 -0.25021,0.2502 l -1.00084,0 c -0.13862,0 -0.25021,-0.1116 -0.25021,-0.2502 l 0,-0.5004 c 0,-0.1386 0.11159,-0.2502 0.25021,-0.2502 z m -11.50963,1.6263 1.00084,0 c 0.13861,0 0.2502,0.1116 0.2502,0.2502 l 0,0.5005 c 0,0.1386 -0.11159,0.2502 -0.2502,0.2502 l -1.00084,0 c -0.13862,0 -0.25022,-0.1116 -0.25022,-0.2502 l 0,-0.5005 c 0,-0.1386 0.1116,-0.2502 0.25022,-0.2502 z m 11.50963,0 1.00084,0 c 0.13861,0 0.25021,0.1116 0.25021,0.2502 l 0,0.5005 c 0,0.1386 -0.1116,0.2502 -0.25021,0.2502 l -1.00084,0 c -0.13862,0 -0.25021,-0.1116 -0.25021,-0.2502 l 0,-0.5005 c 0,-0.1386 0.11159,-0.2502 0.25021,-0.2502 z m -4.32002,1.3977 c 0.43519,0 0.88013,0.027 1.33314,0.078 0.45303,0.049 0.95544,0.1254 1.41916,0.2209 l -0.0176,1.0477 c -0.45312,-0.1408 -0.9241,-0.1952 -1.30578,-0.2795 -0.43549,-0.059 -0.6798,-0.09 -1.00084,-0.09 -0.41734,0 -0.8752,0 -1.17872,0.1349 -0.25326,0.142 -0.3714,0.2516 -0.3714,0.4847 0,0.151 0.52792,0.2731 0.7604,0.346 0.22961,0.072 1.71512,0.1694 2.50796,0.4301 0.55725,0.1832 0.99214,0.4577 1.12985,0.9812 0.14155,0.5382 -0.27957,1.314 -1.10248,1.7848 -0.22082,0.1121 -5.14103,0.029 -5.14103,0.029 l 0.0176,-1.1436 c 0,0 3.31802,0.1173 3.93689,0.078 l 0.31277,-0.4183 c 0.0359,-0.2735 -0.60852,-0.4128 -0.97152,-0.4868 -0.96382,-0.1964 -2.12476,-0.1807 -2.91455,-0.7095 -0.44895,-0.28 -0.43591,-0.7281 -0.43591,-0.9989 0,-0.4683 0.26605,-0.8347 0.79754,-1.0966 0.52794,-0.2619 1.26854,-0.3929 2.22452,-0.3929 z m -7.18961,0.2287 1.00084,0 c 0.13861,0 0.2502,0.1116 0.2502,0.2502 l 0,0.5004 c 0,0.1386 -0.11159,0.2502 -0.2502,0.2502 l -1.00084,0 c -0.13862,0 -0.25022,-0.1116 -0.25022,-0.2502 l 0,-0.5004 c 0,-0.1386 0.1116,-0.2502 0.25022,-0.2502 z m 11.50963,0 1.00084,0 c 0.13861,0 0.25021,0.1116 0.25021,0.2502 l 0,0.5004 c 0,0.1386 -0.1116,0.2502 -0.25021,0.2502 l -1.00084,0 c -0.13862,0 -0.25021,-0.1116 -0.25021,-0.2502 l 0,-0.5004 c 0,-0.1386 0.11159,-0.2502 0.25021,-0.2502 z m -11.50963,1.6263 1.00084,0 c 0.13861,0 0.2502,0.1116 0.2502,0.2503 l 0,0.5004 c 0,0.1386 -0.11159,0.2502 -0.2502,0.2502 l -1.00084,0 c -0.13862,0 -0.25022,-0.1116 -0.25022,-0.2502 l 0,-0.5004 c 0,-0.1387 0.1116,-0.2503 0.25022,-0.2503 z m 11.50963,0 1.00084,0 c 0.13861,0 0.25021,0.1116 0.25021,0.2503 l 0,0.5004 c 0,0.1386 -0.1116,0.2502 -0.25021,0.2502 l -1.00084,0 c -0.13862,0 -0.25021,-0.1116 -0.25021,-0.2502 l 0,-0.5004 c 0,-0.1387 0.11159,-0.2503 0.25021,-0.2503 z m -11.50963,1.6264 1.00084,0 c 0.13861,0 0.2502,0.1116 0.2502,0.2502 l 0,0.5004 c 0,0.1386 -0.11159,0.2502 -0.2502,0.2502 l -1.00084,0 c -0.13862,0 -0.25022,-0.1116 -0.25022,-0.2502 l 0,-0.5004 c 0,-0.1386 0.1116,-0.2502 0.25022,-0.2502 z m 11.50963,0 1.00084,0 c 0.13861,0 0.25021,0.1116 0.25021,0.2502 l 0,0.5004 c 0,0.1386 -0.1116,0.2502 -0.25021,0.2502 l -1.00084,0 c -0.13862,0 -0.25021,-0.1116 -0.25021,-0.2502 l 0,-0.5004 c 0,-0.1386 0.11159,-0.2502 0.25021,-0.2502 z m -11.50963,1.6264 1.00084,0 c 0.13861,0 0.2502,0.1116 0.2502,0.2502 l 0,0.5004 c 0,0.1386 -0.11159,0.2502 -0.2502,0.2502 l -1.00084,0 c -0.13862,0 -0.25022,-0.1116 -0.25022,-0.2502 l 0,-0.5004 c 0,-0.1386 0.1116,-0.2502 0.25022,-0.2502 z m 11.50963,0 1.00084,0 c 0.13861,0 0.25021,0.1116 0.25021,0.2502 l 0,0.5004 c 0,0.1386 -0.1116,0.2502 -0.25021,0.2502 l -1.00084,0 c -0.13862,0 -0.25021,-0.1116 -0.25021,-0.2502 l 0,-0.5004 c 0,-0.1386 0.11159,-0.2502 0.25021,-0.2502 z"
       id="rect3847-1-0-2-1" />
    <path
       inkscape:connector-curvature="0"
       style="fill:url(#radialGradient4592);fill-opacity:1;stroke:none"
       d="m 3.0300536,968.81708 c -1.12873,0 -2.03741999,0.9087 -2.03741999,2.0374 l 0,33.92522 c 0,1.1287 0.90868999,2.0374 2.03741999,2.0374 l 33.9251604,0 c 1.12873,0 2.03742,-0.9087 2.03742,-2.0374 l 0,-33.92522 c 0,-1.1287 -0.90869,-2.0374 -2.03742,-2.0374 l -33.9251604,0 z m -0.0159,2.3611 2.7165598,0 c 0.3762402,0 0.6791302,0.3028 0.6791302,0.6791 l 0,1.3583 c 0,0.3762 -0.30289,0.6791 -0.6791302,0.6791 l -2.7165598,0 c -0.37625,0 -0.67915,-0.3029 -0.67915,-0.6791 l 0,-1.3583 c 0,-0.3763 0.3029,-0.6791 0.67915,-0.6791 z m 31.2404304,0 2.71656,0 c 0.37625,0 0.67914,0.3028 0.67914,0.6791 l 0,1.3583 c 0,0.3762 -0.30289,0.6791 -0.67914,0.6791 l -2.71656,0 c -0.37624,0 -0.67914,-0.3029 -0.67914,-0.6791 l 0,-1.3583 c 0,-0.3763 0.3029,-0.6791 0.67914,-0.6791 z m -17.05278,0.7428 c 2.49216,0 4.42824,0.374 5.80453,1.1248 1.38555,0.7509 2.07454,1.7984 2.07455,3.141 -10e-6,0.7763 0.0349,2.0626 -1.13543,2.8651 -2.05893,1.5162 -5.08528,1.4743 -7.59788,2.0374 -0.94632,0.2122 -2.62969,0.6062 -2.53616,1.3902 l 0.82239,1.1991 c 1.61336,0.112 10.26139,-0.2229 10.26139,-0.2229 l 0.0478,3.279 c 0,0 -12.83206,0.2419 -13.40771,-0.08 -2.1452704,-1.3496 -3.2447504,-3.5773 -2.8757304,-5.1201 0.35899,-1.5008 1.4973004,-2.2868 2.9500104,-2.812 2.06686,-0.7472 5.93816,-1.03 6.53672,-1.2363 0.60605,-0.2088 1.98435,-0.5594 1.98437,-0.9921 -2e-5,-0.6682 -0.31073,-0.9829 -0.97096,-1.3901 -0.79125,-0.3753 -1.98407,-0.3874 -3.07205,-0.3874 -0.83693,0 -1.47516,0.092 -2.61045,0.26 -0.99501,0.2418 -2.21975,0.3976 -3.401,0.8012 l -0.0478,-3.0031 c 1.20889,-0.2736 2.51715,-0.4967 3.69814,-0.6367 1.18098,-0.1463 2.34078,-0.2175 3.47528,-0.2175 z m -14.1876504,3.6716 2.7165598,0 c 0.3762402,0 0.6791302,0.3029 0.6791302,0.6792 l 0,1.3582 c 0,0.3762 -0.30289,0.6792 -0.6791302,0.6792 l -2.7165598,0 c -0.37625,0 -0.67915,-0.303 -0.67915,-0.6792 l 0,-1.3582 c 0,-0.3763 0.3029,-0.6792 0.67915,-0.6792 z m 31.2404304,0 2.71656,0 c 0.37625,0 0.67914,0.3029 0.67914,0.6792 l 0,1.3582 c 0,0.3762 -0.30289,0.6792 -0.67914,0.6792 l -2.71656,0 c -0.37624,0 -0.67914,-0.303 -0.67914,-0.6792 l 0,-1.3582 c 0,-0.3763 0.3029,-0.6792 0.67914,-0.6792 z m -31.2404304,4.4144 2.7165598,0 c 0.3762402,0 0.6791302,0.3029 0.6791302,0.6791 l 0,1.3583 c 0,0.3762 -0.30289,0.6791 -0.6791302,0.6791 l -2.7165598,0 c -0.37625,0 -0.67915,-0.3029 -0.67915,-0.6791 l 0,-1.3583 c 0,-0.3762 0.3029,-0.6791 0.67915,-0.6791 z m 31.2404304,0 2.71656,0 c 0.37625,0 0.67914,0.3029 0.67914,0.6791 l 0,1.3583 c 0,0.3762 -0.30289,0.6791 -0.67914,0.6791 l -2.71656,0 c -0.37624,0 -0.67914,-0.3029 -0.67914,-0.6791 l 0,-1.3583 c 0,-0.3762 0.3029,-0.6791 0.67914,-0.6791 z m -31.2404304,4.4144 2.7165598,0 c 0.3762402,0 0.6791302,0.3029 0.6791302,0.6791 l 0,1.3583 c 0,0.3763 -0.30289,0.6792 -0.6791302,0.6792 l -2.7165598,0 c -0.37625,0 -0.67915,-0.3029 -0.67915,-0.6792 l 0,-1.3583 c 0,-0.3762 0.3029,-0.6791 0.67915,-0.6791 z m 31.2404304,0 2.71656,0 c 0.37625,0 0.67914,0.3029 0.67914,0.6791 l 0,1.3583 c 0,0.3763 -0.30289,0.6792 -0.67914,0.6792 l -2.71656,0 c -0.37624,0 -0.67914,-0.3029 -0.67914,-0.6792 l 0,-1.3583 c 0,-0.3762 0.3029,-0.6791 0.67914,-0.6791 z m -11.72578,3.7936 c 1.18123,10e-5 2.38893,0.074 3.61855,0.2123 1.22963,0.1325 2.59332,0.3405 3.852,0.5995 l -0.0478,2.844 c -1.2299,-0.3822 -2.50827,-0.5299 -3.54426,-0.7588 -1.18205,-0.1592 -1.84516,-0.244 -2.71656,-0.244 -1.1328,0 -2.37556,0.011 -3.19938,0.366 -0.68742,0.3856 -1.00809,0.6832 -1.0081,1.3159 10e-6,0.4097 1.43294,0.7413 2.06395,0.9391 0.62321,0.1953 4.65533,0.4597 6.80731,1.1673 1.51254,0.4972 2.69296,1.2425 3.06674,2.6634 0.38422,1.4608 -0.75883,3.56642 -2.99246,4.84422 -0.59935,0.3044 -13.9542,0.08 -13.9542,0.08 l 0.0478,-3.10382 c 0,0 9.00604,0.3182 10.68584,0.2122 l 0.84893,-1.1355 c 0.0974,-0.7423 -1.65169,-1.1202 -2.63698,-1.3211 -2.61608,-0.5332 -5.76719,-0.4905 -7.91091,-1.926 -1.21859,-0.7598 -1.18318,-1.9762 -1.1832,-2.7112 2e-5,-1.2713 0.72215,-2.2656 2.16477,-2.9766 1.43296,-0.7109 3.44318,-1.0664 6.03797,-1.0665 z m -19.5146504,0.6208 2.7165598,0 c 0.3762402,0 0.6791302,0.3029 0.6791302,0.6792 l 0,1.3583 c 0,0.3762 -0.30289,0.6791 -0.6791302,0.6791 l -2.7165598,0 c -0.37625,0 -0.67915,-0.3029 -0.67915,-0.6791 l 0,-1.3583 c 0,-0.3763 0.3029,-0.6792 0.67915,-0.6792 z m 31.2404304,0 2.71656,0 c 0.37625,0 0.67914,0.3029 0.67914,0.6792 l 0,1.3583 c 0,0.3762 -0.30289,0.6791 -0.67914,0.6791 l -2.71656,0 c -0.37624,0 -0.67914,-0.3029 -0.67914,-0.6791 l 0,-1.3583 c 0,-0.3763 0.3029,-0.6792 0.67914,-0.6792 z m -31.2404304,4.4144 2.7165598,0 c 0.3762402,0 0.6791302,0.3029 0.6791302,0.6792 l 0,1.3582 c 0,0.3763 -0.30289,0.6792 -0.6791302,0.6792 l -2.7165598,0 c -0.37625,0 -0.67915,-0.3029 -0.67915,-0.6792 l 0,-1.3582 c 0,-0.3763 0.3029,-0.6792 0.67915,-0.6792 z m 31.2404304,0 2.71656,0 c 0.37625,0 0.67914,0.3029 0.67914,0.6792 l 0,1.3582 c 0,0.3763 -0.30289,0.6792 -0.67914,0.6792 l -2.71656,0 c -0.37624,0 -0.67914,-0.3029 -0.67914,-0.6792 l 0,-1.3582 c 0,-0.3763 0.3029,-0.6792 0.67914,-0.6792 z m -31.2404304,4.4145 2.7165598,0 c 0.3762402,0 0.6791302,0.3028 0.6791302,0.6791 l 0,1.3583 c 0,0.37622 -0.30289,0.67912 -0.6791302,0.67912 l -2.7165598,0 c -0.37625,0 -0.67915,-0.3029 -0.67915,-0.67912 l 0,-1.3583 c 0,-0.3763 0.3029,-0.6791 0.67915,-0.6791 z m 31.2404304,0 2.71656,0 c 0.37625,0 0.67914,0.3028 0.67914,0.6791 l 0,1.3583 c 0,0.37622 -0.30289,0.67912 -0.67914,0.67912 l -2.71656,0 c -0.37624,0 -0.67914,-0.3029 -0.67914,-0.67912 l 0,-1.3583 c 0,-0.3763 0.3029,-0.6791 0.67914,-0.6791 z m -31.2404304,4.41432 2.7165598,0 c 0.3762402,0 0.6791302,0.303 0.6791302,0.6792 l 0,1.3583 c 0,0.3762 -0.30289,0.6791 -0.6791302,0.6791 l -2.7165598,0 c -0.37625,0 -0.67915,-0.3029 -0.67915,-0.6791 l 0,-1.3583 c 0,-0.3762 0.3029,-0.6792 0.67915,-0.6792 z m 31.2404304,0 2.71656,0 c 0.37625,0 0.67914,0.303 0.67914,0.6792 l 0,1.3583 c 0,0.3762 -0.30289,0.6791 -0.67914,0.6791 l -2.71656,0 c -0.37624,0 -0.67914,-0.3029 -0.67914,-0.6791 l 0,-1.3583 c 0,-0.3762 0.3029,-0.6792 0.67914,-0.6792 z"
       id="rect3847-1-0-9" />
    <path
       style="fill:url(#radialGradient3050);fill-opacity:1;stroke:none"
       d="m 0.86991316,1036.3757 c -0.73999492,-0.018 -0.92588149,0.7646 -0.85641357,1.3534 0,4.5877 0,9.1754 0,13.7632 -0.01730115,0.74 0.76454279,0.9259 1.35337671,0.8564 4.5877368,0 9.1754727,0 13.7632107,0 0.739967,0.018 0.925887,-0.7645 0.856413,-1.3534 0,-4.5877 0,-9.1754 0,-13.7632 0.01733,-0.74 -0.764542,-0.9259 -1.353376,-0.8564 -4.587737,0 -9.1754741,0 -13.76321084,0 z m -0.006725,0.9925 c 0.41709744,0.014 0.83978094,-0.029 1.25320764,0.022 0.257004,0.2404 0.2615385,0.8564 0,1.0971 -0.449973,0.035 -0.9145969,0.038 -1.36453673,0 -0.25707138,-0.2404 -0.26150261,-0.8566 3.6e-6,-1.0971 l 0.11132549,-0.022 0,0 z m 13.13166284,0 c 0.417101,0.014 0.839788,-0.029 1.253218,0.022 0.257013,0.2404 0.261548,0.8564 0,1.0971 -0.449973,0.035 -0.914597,0.038 -1.364537,0 -0.257062,-0.2404 -0.261491,-0.8566 0,-1.0971 l 0.111319,-0.022 z m -7.1679991,0.3123 c 1.0829279,0.02 2.3820256,0.1092 3.0943024,1.0396 0.4141617,0.6805 0.2860517,1.7809 -0.5132788,2.1205 -1.172038,0.6366 -2.5943187,0.413 -3.790995,0.9718 -0.4461405,0.1941 0.040325,0.9027 0.3938093,0.8187 1.3505868,2e-4 2.7004451,-0.056 4.0500192,-0.1022 0.0067,0.4595 0.01339,0.9189 0.02009,1.3783 -1.8437244,0.017 -3.6906345,0.087 -5.532658,-0.011 -0.7850235,-0.3685 -1.4557281,-1.2723 -1.3119555,-2.1748 0.248949,-1.0234 1.4200945,-1.2891 2.3181451,-1.4433 0.8281998,-0.1789 1.7572004,-0.11 2.4782448,-0.609 -0.034438,-1.0159 -1.4528122,-0.8099 -2.1756593,-0.7855 -0.6458296,-5e-4 -1.5458338,0.3932 -2.0266949,0.3277 -0.00622,-0.3907 -0.012437,-0.7814 -0.018655,-1.1721 0.9893656,-0.2187 2.0007907,-0.3589 3.0152816,-0.3589 z m -5.96366374,1.5433 c 0.41709674,0.014 0.83978574,-0.029 1.25320764,0.022 0.2570095,0.2405 0.2615185,0.8565 0,1.0972 -0.4499708,0.035 -0.9146028,0.038 -1.36453673,0 -0.25698656,-0.2405 -0.26157337,-0.8565 3.6e-6,-1.0972 l 0.11132549,-0.022 0,0 z m 13.13166284,0 c 0.4171,0.014 0.839793,-0.029 1.253218,0.022 0.257019,0.2405 0.261528,0.8565 0,1.0972 -0.449971,0.035 -0.914604,0.038 -1.364537,0 -0.256977,-0.2405 -0.261563,-0.8565 0,-1.0972 l 0.111319,-0.022 z m -13.13166284,1.8556 c 0.41709814,0.014 0.83977624,-0.029 1.25320764,0.022 0.257048,0.2403 0.2614939,0.8565 0,1.0971 -0.4499773,0.035 -0.9145926,0.038 -1.36453673,0 -0.25702514,-0.2404 -0.26154877,-0.8565 3.6e-6,-1.0971 l 0.11132549,-0.022 0,0 z m 13.13166284,0 c 0.417102,0.014 0.839783,-0.029 1.253218,0.022 0.257057,0.2403 0.261503,0.8566 0,1.0971 -0.449978,0.035 -0.914593,0.038 -1.364537,0 -0.257016,-0.2404 -0.261538,-0.8565 0,-1.0971 l 0.111319,-0.022 z m -13.13166284,1.8554 c 0.41709624,0.014 0.83978944,-0.029 1.25320764,0.022 0.2570418,0.2405 0.2614957,0.8567 0,1.0973 -0.4499773,0.035 -0.9145926,0.038 -1.36453673,0 -0.25705237,-0.2405 -0.26151706,-0.8566 3.6e-6,-1.0973 l 0.11132549,-0.022 0,0 z m 13.13166284,0 c 0.4171,0.014 0.839796,-0.029 1.253218,0.022 0.257051,0.2405 0.261505,0.8567 0,1.0973 -0.449978,0.035 -0.914593,0.038 -1.364537,0 -0.257043,-0.2405 -0.261506,-0.8566 0,-1.0973 l 0.111319,-0.022 z m -4.9288392,1.5946 c 1.0548782,0 2.1068032,0.1345 3.1401912,0.3411 -0.0067,0.3986 -0.01339,0.797 -0.02009,1.1955 -1.288613,-0.3145 -2.6674791,-0.6223 -3.9765216,-0.2675 -0.834027,0.356 -0.169031,0.9569 0.4438138,0.9479 1.2336572,0.2408 2.6105628,0.1617 3.6854448,0.9048 0.737943,0.5204 0.550714,1.6048 -0.05251,2.1549 -0.43962,0.6144 -1.172162,0.6993 -1.870273,0.6474 -1.5785384,0.017 -3.1571931,-0.01 -4.7355651,-0.027 0.0067,-0.4349 0.013395,-0.8697 0.020092,-1.3046 1.4967532,0.042 2.9941748,0.114 4.4917061,0.089 0.315159,-0.2958 0.549074,-0.7811 -0.115537,-0.8726 -1.350335,-0.4528 -2.9454675,-0.1943 -4.1297774,-1.0976 -0.6160325,-0.6507 -0.3635562,-1.8558 0.4708775,-2.2054 0.8071237,-0.4297 1.7500722,-0.4978 2.6481573,-0.5058 z m -8.20282364,0.261 c 0.41709664,0.014 0.83978624,-0.029 1.25320764,0.022 0.2569835,0.2405 0.2615405,0.8566 0,1.0973 -0.4499666,0.035 -0.9146034,0.038 -1.36453673,0 -0.25700685,-0.2406 -0.26154877,-0.8566 3.6e-6,-1.0973 l 0.11132549,-0.022 0,0 z m 13.13166284,0 c 0.4171,0.014 0.839793,-0.029 1.253218,0.022 0.256993,0.2405 0.26155,0.8566 0,1.0973 -0.449967,0.035 -0.914604,0.038 -1.364537,0 -0.256997,-0.2406 -0.261538,-0.8566 0,-1.0973 l 0.111319,-0.022 z m -13.13166284,1.8555 c 0.41709614,0.014 0.83978994,-0.029 1.25320764,0.022 0.2570046,0.2405 0.2615267,0.8566 0,1.0972 -0.4499768,0.035 -0.9145931,0.038 -1.36453673,0 -0.25701523,-0.2405 -0.26154805,-0.8565 3.6e-6,-1.0972 l 0.11132549,-0.022 0,0 z m 13.13166284,0 c 0.4171,0.014 0.839797,-0.029 1.253218,0.022 0.257013,0.2405 0.261536,0.8566 0,1.0972 -0.449977,0.035 -0.914593,0.038 -1.364537,0 -0.257006,-0.2405 -0.261537,-0.8565 0,-1.0972 l 0.111319,-0.022 z m -13.13166284,1.8555 c 0.41709624,0.014 0.83978944,-0.029 1.25320764,0.022 0.2570508,0.2405 0.2614832,0.8566 0,1.0973 -0.4499768,0.035 -0.9145931,0.038 -1.36453673,0 -0.25701731,-0.2405 -0.26154861,-0.8567 3.6e-6,-1.0973 l 0.11132549,-0.022 0,0 z m 13.13166284,0 c 0.4171,0.014 0.839796,-0.029 1.253218,0.022 0.25706,0.2405 0.261492,0.8566 0,1.0973 -0.449977,0.035 -0.914593,0.038 -1.364537,0 -0.257008,-0.2405 -0.261538,-0.8567 0,-1.0973 l 0.111319,-0.022 z m -13.13166284,1.8556 c 0.41709614,0.014 0.83978994,-0.029 1.25320764,0.022 0.2570249,0.2406 0.2615052,0.8566 0,1.0974 -0.449972,0.035 -0.914598,0.038 -1.36453673,0 -0.25703975,-0.2406 -0.26152218,-0.8567 3.6e-6,-1.0974 l 0.11132549,-0.022 0,0 z m 13.13166284,0 c 0.4171,0.014 0.839797,-0.029 1.253218,0.022 0.257034,0.2406 0.261515,0.8566 0,1.0974 -0.449972,0.035 -0.914599,0.038 -1.364537,0 -0.25703,-0.2406 -0.261511,-0.8567 0,-1.0974 l 0.111319,-0.022 z"
       id="rect3847-1-0-9-2"
       inkscape:connector-curvature="0" />
  </g>
</svg>
